<?xml version="1.0" encoding="utf-8"?>
<!-- Generator: Adobe Illustrator 22.0.1, SVG Export Plug-In . SVG Version: 6.00 Build 0)  -->
<svg version="1.1"
	 id="Capa_1" xmlns:cc="http://creativecommons.org/ns#" xmlns:dc="http://purl.org/dc/elements/1.1/" xmlns:rdf="http://www.w3.org/1999/02/22-rdf-syntax-ns#"
	 xmlns="http://www.w3.org/2000/svg" xmlns:xlink="http://www.w3.org/1999/xlink" x="0px" y="0px" viewBox="0 0 24 34.3"
	 style="enable-background:new 0 0 24 34.3;" xml:space="preserve">
<style type="text/css">
	.st0{fill:url(#SVGID_1_);}
	.st1{fill:#C0392B;}
	.st2{fill:#E74C3C;}
</style>
<radialGradient id="SVGID_1_" cx="13.118" cy="30.7982" r="6.5537" gradientTransform="matrix(1.4517 0 0 0.5715 -7.0123 12.3707)" gradientUnits="userSpaceOnUse">
	<stop  offset="0" style="stop-color:#000000;stop-opacity:0.4"/>
	<stop  offset="0.1145" style="stop-color:#040404;stop-opacity:0.3542"/>
	<stop  offset="0.2388" style="stop-color:#111111;stop-opacity:0.3045"/>
	<stop  offset="0.3677" style="stop-color:#272727;stop-opacity:0.2529"/>
	<stop  offset="0.4998" style="stop-color:#464646;stop-opacity:0.2001"/>
	<stop  offset="0.6344" style="stop-color:#6D6D6D;stop-opacity:0.1462"/>
	<stop  offset="0.771" style="stop-color:#9D9D9D;stop-opacity:9.158584e-02"/>
	<stop  offset="0.9067" style="stop-color:#D4D4D4;stop-opacity:3.730372e-02"/>
	<stop  offset="1" style="stop-color:#FFFFFF;stop-opacity:0"/>
</radialGradient>
<ellipse class="st0" cx="12" cy="30" rx="12.6" ry="3.9"/>
<g transform="translate(0 -1028.4)">
	<path class="st1" d="M12,1030.4c-3.9,0-7,3.1-7,7c0,1.3,0.4,2.6,1.1,3.7c0,0.1,0.1,0.1,0.1,0.2l4.3,8c0.2,0.6,0.8,1.1,1.4,1.1
		s1.2-0.5,1.4-1.1l4.8-8.7c0.5-1,0.8-2.1,0.8-3.2C19,1033.5,15.9,1030.4,12,1030.4z M12,1034.3c1.9,0,3.5,1.6,3.5,3.5
		c0,2-1.6,3.5-3.5,3.5s-3.5-1.5-3.5-3.5C8.5,1035.9,10.1,1034.3,12,1034.3z"/>
	<path class="st2" d="M12,1029.4c-3.9,0-7,3.1-7,7c0,1.4,0.4,2.7,1.1,3.7c0,0.1,0.1,0.1,0.1,0.2l4.3,8.1c0.2,0.6,0.8,1,1.4,1
		s1.2-0.4,1.4-1l4.8-8.8c0.5-1,0.8-2.1,0.8-3.2C19,1032.6,15.9,1029.4,12,1029.4z M12,1033.4c1.9,0,3.5,1.6,3.5,3.5
		s-1.6,3.5-3.5,3.5s-3.5-1.6-3.5-3.5S10.1,1033.4,12,1033.4z"/>
</g>
</svg>
